<svg xmlns="http://www.w3.org/2000/svg" xmlns:xlink="http://www.w3.org/1999/xlink" width="32.801" height="35.976" viewBox="0 0 32.801 35.976">
  <defs>
    <linearGradient id="linear-gradient" y1="1" x2="1" gradientUnits="objectBoundingBox">
      <stop offset="0" stop-color="#00b3d5"/>
      <stop offset="1" stop-color="#00e1d3"/>
    </linearGradient>
  </defs>
  <g id="playquiz" transform="translate(-1064.297 -8127.125)">
    <g id="Group_1382" data-name="Group 1382" transform="translate(1064.797 8127.691)">
      <g id="Group_1380" data-name="Group 1380" transform="translate(0)">
        <path id="Path_2831" data-name="Path 2831" d="M962.234,8168.176a5.675,5.675,0,0,1-2.822-.749l-10.22-5.852a5.7,5.7,0,0,1-2.858-4.909l-.042-11.776a5.7,5.7,0,0,1,2.822-4.929l10.177-5.925a5.693,5.693,0,0,1,5.681-.021l10.219,5.852a5.7,5.7,0,0,1,2.858,4.909l.043,11.776a5.7,5.7,0,0,1-2.823,4.93l-10.177,5.924A5.681,5.681,0,0,1,962.234,8168.176Zm-.085-32.964a3.735,3.735,0,0,0-1.879.506l-10.177,5.925a3.744,3.744,0,0,0-1.856,3.241l.042,11.775a3.744,3.744,0,0,0,1.879,3.228l10.22,5.852a3.745,3.745,0,0,0,3.735-.014l10.178-5.925a3.746,3.746,0,0,0,1.856-3.241l-.042-11.777a3.745,3.745,0,0,0-1.879-3.227l-10.22-5.852A3.729,3.729,0,0,0,962.149,8135.212Z" transform="translate(-946.292 -8133.267)" stroke="rgba(0,0,0,0)" stroke-width="1" fill="url(#linear-gradient)"/>
      </g>
      <g id="Group_1381" data-name="Group 1381" transform="translate(11.21 10.823)">
        <path id="Path_2832" data-name="Path 2832" d="M982.549,8179.448a1.7,1.7,0,0,1-1.693-1.7v-9.418a1.693,1.693,0,0,1,2.539-1.466l8.157,4.71a1.693,1.693,0,0,1,0,2.931l-8.156,4.709A1.688,1.688,0,0,1,982.549,8179.448Zm.253-10.675v8.541l7.4-4.271Z" transform="translate(-980.857 -8166.64)" stroke="rgba(0,0,0,0)" stroke-width="1" fill="url(#linear-gradient)"/>
      </g>
    </g>
  </g>
</svg>
