<svg xmlns="http://www.w3.org/2000/svg" xmlns:xlink="http://www.w3.org/1999/xlink" width="36.469" height="36.033" viewBox="0 0 36.469 36.033">
  <defs>
    <linearGradient id="linear-gradient" y1="1" x2="1" gradientUnits="objectBoundingBox">
      <stop offset="0" stop-color="#00b3d5"/>
      <stop offset="1" stop-color="#00e1d3"/>
    </linearGradient>
  </defs>
  <g id="battle" transform="translate(0.5 0.5)">
    <g id="Group_573" data-name="Group 573" transform="translate(4.25 21.533)">
      <g id="Group_571" data-name="Group 571">
        <path id="Path_1901" data-name="Path 1901" d="M4033.646,5792.927a7.712,7.712,0,0,1-5.831-2.123,7.31,7.31,0,0,1-1.841-5.119.734.734,0,0,1,1.464.1,5.891,5.891,0,0,0,1.449,4.02,6.46,6.46,0,0,0,4.995,1.657h.014a.734.734,0,0,1,.014,1.467C4033.821,5792.927,4033.733,5792.927,4033.646,5792.927Z" transform="translate(-4025.967 -5785)" stroke="rgba(0,0,0,0)" stroke-width="1" fill="url(#linear-gradient)"/>
      </g>
      <g id="Group_572" data-name="Group 572" transform="translate(6.535 4.402)">
        <path id="Path_1902" data-name="Path 1902" d="M4071.234,5821.016a.731.731,0,0,1-.733-.734v-4.548a.733.733,0,0,1,1.251-.518l2.276,2.272a.733.733,0,0,1,0,1.038l-2.276,2.276A.731.731,0,0,1,4071.234,5821.016Zm.733-3.512v1.008l.5-.5Z" transform="translate(-4070.501 -5815)" stroke="rgba(0,0,0,0)" stroke-width="1" fill="url(#linear-gradient)"/>
      </g>
    </g>
    <g id="Group_576" data-name="Group 576" transform="translate(20.574 2.641)">
      <g id="Group_574" data-name="Group 574" transform="translate(1.616 2.492)">
        <path id="Path_1903" data-name="Path 1903" d="M4158.426,5678.908l-.05,0a.734.734,0,0,1-.684-.778,5.9,5.9,0,0,0-1.448-4.021,6.473,6.473,0,0,0-5-1.657h-.015a.733.733,0,0,1-.013-1.467,7.843,7.843,0,0,1,6.1,2.122,7.309,7.309,0,0,1,1.841,5.117A.734.734,0,0,1,4158.426,5678.908Z" transform="translate(-4150.501 -5670.981)" stroke="rgba(0,0,0,0)" stroke-width="1" fill="url(#linear-gradient)"/>
      </g>
      <g id="Group_575" data-name="Group 575">
        <path id="Path_1904" data-name="Path 1904" d="M4142.5,5660.015a.732.732,0,0,1-.518-.214l-2.276-2.273a.733.733,0,0,1,0-1.037l2.277-2.277a.734.734,0,0,1,1.25.521v4.548a.734.734,0,0,1-.452.677A.725.725,0,0,1,4142.5,5660.015Zm-1.238-3.006.5.5V5656.5Z" transform="translate(-4139.491 -5653.999)" stroke="rgba(0,0,0,0)" stroke-width="1" fill="url(#linear-gradient)"/>
      </g>
    </g>
    <g id="Group_580" data-name="Group 580" transform="translate(16.1 15.663)">
      <g id="Group_577" data-name="Group 577">
        <path id="Path_1905" data-name="Path 1905" d="M4118.685,5764.369a9.685,9.685,0,1,1,9.685-9.684A9.7,9.7,0,0,1,4118.685,5764.369Zm0-17.9a8.217,8.217,0,1,0,8.217,8.218A8.227,8.227,0,0,0,4118.685,5746.468Z" transform="translate(-4109 -5745)" stroke="rgba(0,0,0,0)" stroke-width="1" fill="url(#linear-gradient)"/>
      </g>
      <g id="Group_578" data-name="Group 578" transform="translate(7.06 4.369)">
        <path id="Path_1906" data-name="Path 1906" d="M4159.519,5779.58a2.4,2.4,0,1,1,2.4-2.4A2.407,2.407,0,0,1,4159.519,5779.58Zm0-3.341a.937.937,0,1,0,.937.937A.938.938,0,0,0,4159.519,5776.239Z" transform="translate(-4157.114 -5774.771)" stroke="rgba(0,0,0,0)" stroke-width="1" fill="url(#linear-gradient)"/>
      </g>
      <g id="Group_579" data-name="Group 579" transform="translate(5.724 9.798)">
        <path id="Path_1907" data-name="Path 1907" d="M4154.754,5815.623a.734.734,0,0,1-.735-.734c0-1.139-1.141-1.647-2.273-1.647s-2.273.509-2.273,1.647a.734.734,0,1,1-1.467,0c0-1.834,1.538-3.115,3.741-3.115s3.741,1.281,3.741,3.115A.733.733,0,0,1,4154.754,5815.623Z" transform="translate(-4148.005 -5811.773)" stroke="rgba(0,0,0,0)" stroke-width="1" fill="url(#linear-gradient)"/>
      </g>
    </g>
    <g id="Group_584" data-name="Group 584" transform="translate(0 0)">
      <g id="Group_581" data-name="Group 581">
        <path id="Path_1908" data-name="Path 1908" d="M4006.685,5655.369a9.685,9.685,0,1,1,9.685-9.686A9.7,9.7,0,0,1,4006.685,5655.369Zm0-17.9a8.217,8.217,0,1,0,8.217,8.216A8.227,8.227,0,0,0,4006.685,5637.467Z" transform="translate(-3997 -5636)" stroke="rgba(0,0,0,0)" stroke-width="1" fill="url(#linear-gradient)"/>
      </g>
      <g id="Group_582" data-name="Group 582" transform="translate(7.06 4.369)">
        <path id="Path_1909" data-name="Path 1909" d="M4047.519,5670.58a2.4,2.4,0,1,1,2.4-2.4A2.407,2.407,0,0,1,4047.519,5670.58Zm0-3.341a.937.937,0,1,0,.937.938A.938.938,0,0,0,4047.519,5667.239Z" transform="translate(-4045.114 -5665.771)" stroke="rgba(0,0,0,0)" stroke-width="1" fill="url(#linear-gradient)"/>
      </g>
      <g id="Group_583" data-name="Group 583" transform="translate(5.724 9.798)">
        <path id="Path_1910" data-name="Path 1910" d="M4042.753,5706.624a.733.733,0,0,1-.733-.733c0-1.139-1.142-1.648-2.274-1.648s-2.274.51-2.274,1.648a.734.734,0,0,1-1.467,0c0-1.834,1.539-3.115,3.741-3.115s3.742,1.281,3.742,3.115A.734.734,0,0,1,4042.753,5706.624Z" transform="translate(-4036.004 -5702.775)" stroke="rgba(0,0,0,0)" stroke-width="1" fill="url(#linear-gradient)"/>
      </g>
    </g>
  </g>
</svg>
