<svg xmlns="http://www.w3.org/2000/svg" xmlns:xlink="http://www.w3.org/1999/xlink" width="33.315" height="33.215" viewBox="0 0 33.315 33.215">
  <defs>
    <filter id="Path_21" x="0" y="1.205" width="33.315" height="32.01" filterUnits="userSpaceOnUse">
      <feOffset dy="3" input="SourceAlpha"/>
      <feGaussianBlur stdDeviation="3" result="blur"/>
      <feFlood flood-opacity="0.161"/>
      <feComposite operator="in" in2="blur"/>
      <feComposite in="SourceGraphic"/>
    </filter>
  </defs>
  <g id="cemera" transform="translate(-1048.596 -2281.392)">
    <path id="Path_954" data-name="Path 954" d="M15,0A15,15,0,1,1,0,15,15,15,0,0,1,15,0Z" transform="translate(1050.392 2281.392)" fill="none"/>
    <g id="Group_510" data-name="Group 510" transform="translate(1051.358 2282.358)">
      <path id="Path_955" data-name="Path 955" d="M14.061,0A14.061,14.061,0,1,1,0,14.061,14.061,14.061,0,0,1,14.061,0Z" fill="#00b3d5"/>
      <g id="camera_alt-24px" transform="translate(4.682 4.682)">
        <circle id="Ellipse_1" data-name="Ellipse 1" cx="2.491" cy="2.491" r="2.491" transform="translate(6.724 6.724)" fill="#fff"/>
        <g transform="matrix(1, 0, 0, 1, -7.44, -5.65)" filter="url(#Path_21)">
          <path id="Path_21-2" data-name="Path 21" d="M7.36,2l-1.4,1.557H3.532A1.549,1.549,0,0,0,2,5.113v9.34A1.549,1.549,0,0,0,3.532,16.01H15.784a1.549,1.549,0,0,0,1.532-1.557V5.113a1.549,1.549,0,0,0-1.532-1.557H13.356L11.955,2Zm2.3,11.675a3.892,3.892,0,1,1,3.829-3.892A3.862,3.862,0,0,1,9.658,13.675Z" transform="translate(7 5.2)" fill="#fff"/>
        </g>
        <path id="Path_22" data-name="Path 22" d="M0,0H18.429V18.429H0Z" fill="none"/>
      </g>
    </g>
  </g>
</svg>
