<svg id="contest" xmlns="http://www.w3.org/2000/svg" xmlns:xlink="http://www.w3.org/1999/xlink" width="38" height="31.417" viewBox="0 0 38 31.417">
  <defs>
    <linearGradient id="linear-gradient" y1="1" x2="1" gradientUnits="objectBoundingBox">
      <stop offset="0" stop-color="#00b3d5"/>
      <stop offset="1" stop-color="#00e1d3"/>
    </linearGradient>
  </defs>
  <path id="Path_3257" data-name="Path 3257" d="M282.271,362.642a2.245,2.245,0,1,1,2.245-2.245A2.247,2.247,0,0,1,282.271,362.642Zm0-3.348a1.1,1.1,0,1,0,1.1,1.1A1.1,1.1,0,0,0,282.271,359.293Z" transform="translate(-276.615 -349.568)" fill="url(#linear-gradient)"/>
  <path id="Path_3258" data-name="Path 3258" d="M274.737,458.428a.571.571,0,0,1-.565-.655l.586-3.906a.571.571,0,0,1,1.129.169l-.586,3.906A.571.571,0,0,1,274.737,458.428Zm4.343-.037a.571.571,0,0,1-.562-.476l-.648-3.869a.571.571,0,1,1,1.126-.189l.649,3.868a.571.571,0,0,1-.564.665Z" transform="translate(-271.201 -437.56)" fill="url(#linear-gradient)"/>
  <path id="Path_3259" data-name="Path 3259" d="M252.493,427.644a.571.571,0,0,1-.563-.67l.839-4.73a2.564,2.564,0,0,1,1.889-2.084l.585-.152a.571.571,0,0,1,.287,1.1l-.585.152a1.423,1.423,0,0,0-1.049,1.16l0,.012-.84,4.736A.571.571,0,0,1,252.493,427.644Z" transform="translate(-250.649 -406.708)" fill="url(#linear-gradient)"/>
  <path id="Path_3260" data-name="Path 3260" d="M318.654,427.54a.571.571,0,0,1-.561-.471l-.822-4.632,0-.012a1.423,1.423,0,0,0-1.049-1.16l-.585-.152a.571.571,0,0,1,.287-1.1l.585.152a2.564,2.564,0,0,1,1.889,2.083l.821,4.627a.571.571,0,0,1-.563.671Z" transform="translate(-309.127 -406.708)" fill="url(#linear-gradient)"/>
  <path id="Path_3261" data-name="Path 3261" d="M451.966,362.642a2.245,2.245,0,1,1,2.245-2.245A2.247,2.247,0,0,1,451.966,362.642Zm0-3.348a1.1,1.1,0,1,0,1.1,1.1A1.1,1.1,0,0,0,451.966,359.293Z" transform="translate(-433.418 -349.568)" fill="url(#linear-gradient)"/>
  <path id="Path_3262" data-name="Path 3262" d="M449.431,320.905a.571.571,0,0,1-.565-.655l.586-3.906a.571.571,0,1,1,1.129.169l-.586,3.906A.571.571,0,0,1,449.431,320.905Zm5.108,0a.571.571,0,0,1-.57-.557l-.124-5.208a4.022,4.022,0,0,1,.019-.5l.879-8.706a.239.239,0,0,0-.2-.259.238.238,0,0,0-.277.213v.012l-.291,2.5a.571.571,0,1,1-1.134-.132l.291-2.5a1.38,1.38,0,1,1,2.746.276L455,314.756a2.874,2.874,0,0,0-.014.356l.124,5.208a.571.571,0,0,1-.557.584Z" transform="translate(-432.623 -300.017)" fill="url(#linear-gradient)"/>
  <path id="Path_3263" data-name="Path 3263" d="M427.187,427.644a.571.571,0,0,1-.563-.67l.839-4.73a2.563,2.563,0,0,1,1.889-2.084l.585-.152a.571.571,0,0,1,.287,1.1l-.585.152a1.423,1.423,0,0,0-1.049,1.16l0,.012-.84,4.736A.571.571,0,0,1,427.187,427.644Z" transform="translate(-412.068 -406.708)" fill="url(#linear-gradient)"/>
  <path id="Path_3264" data-name="Path 3264" d="M632.441,362.642a2.245,2.245,0,1,1,2.245-2.245A2.247,2.247,0,0,1,632.441,362.642Zm0-3.348a1.1,1.1,0,1,0,1.1,1.1A1.1,1.1,0,0,0,632.441,359.293Z" transform="translate(-600.181 -349.568)" fill="url(#linear-gradient)"/>
  <path id="Path_3265" data-name="Path 3265" d="M624.776,458.494a.565.565,0,0,1-.085-.006.571.571,0,0,1-.48-.649l.6-3.972a.571.571,0,0,1,1.129.169l-.6,3.972A.571.571,0,0,1,624.776,458.494Zm4.36-.066a.571.571,0,0,1-.562-.476l-.655-3.906a.571.571,0,1,1,1.126-.189l.655,3.906a.571.571,0,0,1-.564.665Z" transform="translate(-594.646 -437.56)" fill="url(#linear-gradient)"/>
  <path id="Path_3266" data-name="Path 3266" d="M602.663,427.644a.571.571,0,0,1-.563-.67l.839-4.73a2.564,2.564,0,0,1,1.889-2.084l.585-.152a.571.571,0,0,1,.287,1.1l-.585.152a1.423,1.423,0,0,0-1.049,1.16l0,.012-.84,4.736A.571.571,0,0,1,602.663,427.644Z" transform="translate(-574.208 -406.708)" fill="url(#linear-gradient)"/>
  <path id="Path_3267" data-name="Path 3267" d="M668.83,427.577a.571.571,0,0,1-.561-.471l-.828-4.67,0-.012a1.423,1.423,0,0,0-1.049-1.16l-.585-.152a.571.571,0,0,1,.287-1.1l.585.152a2.563,2.563,0,0,1,1.889,2.084l.828,4.664a.571.571,0,0,1-.563.671Z" transform="translate(-632.686 -406.708)" fill="url(#linear-gradient)"/>
  <path id="Path_3268" data-name="Path 3268" d="M246.03,517.221a.571.571,0,0,1-.571-.571v-9.926h-9.113v9.926a.571.571,0,0,1-1.141,0v-10.5a.571.571,0,0,1,.571-.571H246.03a.571.571,0,0,1,.571.571v10.5A.571.571,0,0,1,246.03,517.221Z" transform="translate(-235.205 -485.804)" fill="url(#linear-gradient)"/>
  <path id="Path_3269" data-name="Path 3269" d="M421.115,517.221a.571.571,0,0,1-.571-.571v-9.926h-9.113v9.926a.571.571,0,0,1-1.141,0v-10.5a.571.571,0,0,1,.571-.571h10.255a.571.571,0,0,1,.571.571v10.5A.571.571,0,0,1,421.115,517.221Z" transform="translate(-396.988 -485.804)" fill="url(#linear-gradient)"/>
  <path id="Path_3270" data-name="Path 3270" d="M596.2,517.221a.571.571,0,0,1-.571-.571v-9.926h-9.113v9.926a.571.571,0,0,1-1.141,0v-10.5a.571.571,0,0,1,.571-.571H596.2a.571.571,0,0,1,.571.571v10.5A.571.571,0,0,1,596.2,517.221Z" transform="translate(-558.771 -485.804)" fill="url(#linear-gradient)"/>
  <path id="Path_3271" data-name="Path 3271" d="M445.83,249.279a.571.571,0,0,1-.549-.414l-.7-2.462a.571.571,0,1,1,1.1-.313l.7,2.462a.571.571,0,0,1-.549.727Z" transform="translate(-428.645 -245.64)" fill="url(#linear-gradient)"/>
  <path id="Path_3272" data-name="Path 3272" d="M495.347,248.879a.571.571,0,0,1-.566-.653l.366-2.534a.571.571,0,1,1,1.13.163l-.367,2.534A.571.571,0,0,1,495.347,248.879Z" transform="translate(-475.047 -245.203)" fill="url(#linear-gradient)"/>
  <path id="Path_3273" data-name="Path 3273" d="M404.1,289.587a.568.568,0,0,1-.308-.091l-2.154-1.383a.571.571,0,0,1,.617-.961l2.154,1.383a.571.571,0,0,1-.309,1.051Z" transform="translate(-388.742 -283.877)" fill="url(#linear-gradient)"/>
  <g id="Group_1605" data-name="Group 1605" transform="translate(29.816 23.792)">
    <path id="Path_3274" data-name="Path 3274" d="M632.118,563.425a.569.569,0,0,1-.4-.167l-3.958-3.958a.571.571,0,0,1,.807-.807l3.958,3.958a.571.571,0,0,1-.4.974Z" transform="translate(-627.589 -558.325)" fill="url(#linear-gradient)"/>
    <path id="Path_3275" data-name="Path 3275" d="M628.16,563.424a.571.571,0,0,1-.4-.974l3.958-3.958a.571.571,0,1,1,.807.807l-3.958,3.958A.569.569,0,0,1,628.16,563.424Z" transform="translate(-627.589 -558.324)" fill="url(#linear-gradient)"/>
  </g>
  <g id="Group_1606" data-name="Group 1606" transform="translate(3.258 23.792)">
    <path id="Path_3276" data-name="Path 3276" d="M282.545,563.425a.569.569,0,0,1-.4-.167l-3.958-3.958a.571.571,0,1,1,.807-.807l3.958,3.958a.571.571,0,0,1-.4.974Z" transform="translate(-278.016 -558.325)" fill="url(#linear-gradient)"/>
    <path id="Path_3277" data-name="Path 3277" d="M278.587,563.425a.571.571,0,0,1-.4-.974l3.958-3.958a.571.571,0,1,1,.807.807l-3.958,3.958A.569.569,0,0,1,278.587,563.425Z" transform="translate(-278.016 -558.325)" fill="url(#linear-gradient)"/>
  </g>
  <path id="Path_3278" data-name="Path 3278" d="M449.879,558.965a2.874,2.874,0,1,1,2.875-2.875A2.878,2.878,0,0,1,449.879,558.965Zm0-4.608a1.733,1.733,0,1,0,1.733,1.733A1.735,1.735,0,0,0,449.879,554.357Z" transform="translate(-430.909 -529.813)" fill="url(#linear-gradient)"/>
</svg>
