<svg xmlns="http://www.w3.org/2000/svg" width="27" height="27" viewBox="0 0 27 27">
  <g id="lock" transform="translate(-919.25 -939.916)">
    <path id="Icon_ionic-ios-lock" data-name="Icon ionic-ios-lock" d="M21.515,10.968H20.25V8.506a5.063,5.063,0,1,0-10.125-.069v2.531H8.859A2.116,2.116,0,0,0,6.75,13.078V23.2a2.116,2.116,0,0,0,2.109,2.109H21.515A2.116,2.116,0,0,0,23.625,23.2V13.078A2.116,2.116,0,0,0,21.515,10.968Zm-5.59,6.581v3.628a.756.756,0,0,1-.7.759.739.739,0,0,1-.775-.738V17.55a1.687,1.687,0,1,1,1.477,0Zm2.848-6.581H11.6V8.437a3.586,3.586,0,0,1,7.172,0Z" transform="translate(917.563 939.242)" fill="#00b3d5"/>
    <path id="Icon_ionic-ios-lock-2" data-name="Icon ionic-ios-lock" d="M30.375,12.721H28.35V9.69c0-3.42-3.544-6.263-7.99-6.315-4.506-.045-8.21,2.778-8.21,6.231v3.115H10.125c-1.856,0-3.375,1.168-3.375,2.6V27.778c0,1.428,1.519,2.6,3.375,2.6h20.25c1.856,0,3.375-1.168,3.375-2.6V15.317C33.75,13.889,32.231,12.721,30.375,12.721Zm-8.944,8.1v4.465a1.072,1.072,0,0,1-1.122.935,1.089,1.089,0,0,1-1.24-.909V20.821a2.053,2.053,0,0,1-1.51-2.057,2.488,2.488,0,0,1,2.5-1.882c1.578-.084,2.894.876,2.894,2.07A2.1,2.1,0,0,1,21.431,20.821Zm4.556-8.1H14.512V9.606A3.946,3.946,0,0,1,16.2,6.49a6.644,6.644,0,0,1,4.05-1.3,6.644,6.644,0,0,1,4.05,1.3,3.946,3.946,0,0,1,1.688,3.115Z" transform="translate(912.5 936.542)" fill="none"/>
  </g>
</svg>
